Genre:Animation | Family 
Language:English
IMDb:http://www.imdb.com/title/tt1620449/
Source:Real Full German Bluray/UK Retail


Format : MPEG-4
Format profile : Base Media
Codec ID : isom
File size : 1.58 GiB
Duration : 1h 33mn
Overall bit rate : 2 433 Kbps


Video
Format profile : High@L4.1
Format settings, CABAC : Yes
Format settings, ReFrames : 3 frames
Codec ID : avc1
Codec ID/Info : Advanced Video Coding
Duration : 1h 33mn
Bit rate mode : Variable
Bit rate : 2 000 Kbps
Maximum bit rate : 11.6 Mbps
Width : 720 pixels
Height : 304 pixels
Display aspect ratio : 2.35:1
Frame rate mode : Constant
Frame rate : 23.976 fps
Color space : YUV
Chroma subsampling : 4:2:0
Bit depth : 8 bits
Scan type : Progressive
Bits/(Pixel*Frame) : 0.381
Stream size : 1.29 GiB (82%)
Writing library : x264


Audio
ID : 2
Format : AAC
Format/Info : Advanced Audio Codec
Format version : Version 4
Format profile : LC
Format settings, SBR : No
Codec ID : 40
Duration : 1h 33mn
Bit rate mode : Variable
Bit rate : 445 Kbps
Maximum bit rate : 538 Kbps
Channel(s) : 6 channels
Channel positions : Front: L C R, Side: L R, LFE
Sampling rate : 48.0 KHz
Stream size : 297 MiB (18%)


Plot:
A group of animals waiting for the annual flood they rely on for food and water discover that the humans...

Screens:
 
http://leetleech.org/images/14247650198387886899.png 
http://leetleech.org/images/07043915557353153543.png 
http://leetleech.org/images/24326229249326516400.png 
http://leetleech.org/images/18598233078285569051.png 
http://leetleech.org/images/66958391110933350651.png

Greets:

INK,CRYS,IMAGINE,LKRG,FXG,3Li,FLAWL3SS,TA,iLLUSiON,ViSiON,DTRG SAFCuk009,LU,TheFalcon007,MYSTiC,PrisM,Noir,WBZ,LAP,Rx,Kingdom,SAFCuk009+Fabreezy,HDLiTE,TWiZTED,ExtraTorrentRG.ELEKTRI4KA,MAGNAT,CM8
And to all the other p2p grps past and present.